<?xml version="1.0" encoding="utf-8"?>
<!-- Generator: Adobe Illustrator 21.1.0, SVG Export Plug-In . SVG Version: 6.00 Build 0)  -->
<svg version="1.1" id="Logo__x2014__FIXED" xmlns="http://www.w3.org/2000/svg" xmlns:xlink="http://www.w3.org/1999/xlink" x="0px"
	 y="0px" viewBox="0 0 400 400" style="enable-background:new 0 0 400 400;" xml:space="preserve">
<style type="text/css">
	.st0{fill:none;}
</style>
<g>
	<rect class="st0" width="400" height="400"/>
	<path d="M125.8,362.5c150.9,0,233.5-125.1,233.5-233.5c0-3.6-0.1-7.1-0.2-10.6c16-11.6,30-26,40.9-42.5
		c-14.7,6.5-30.5,10.9-47.1,12.9c16.9-10.2,30-26.2,36.1-45.4c-15.9,9.4-33.4,16.2-52.1,19.9c-15-16-36.3-25.9-59.9-25.9
		c-45.3,0-82.1,36.8-82.1,82.1c0,6.4,0.7,12.7,2.1,18.7c-68.2-3.4-128.7-36.1-169.2-85.7c-7.1,12.1-11.1,26.2-11.1,41.2
		c0,28.5,14.5,53.6,36.5,68.3c-13.5-0.4-26.1-4.1-37.2-10.3c0,0.3,0,0.7,0,1c0,39.7,28.3,72.9,65.8,80.5c-6.9,1.9-14.1,2.9-21.6,2.9
		c-5.3,0-10.4-0.5-15.4-1.5c10.4,32.6,40.7,56.3,76.7,57c-28.1,22-63.5,35.1-101.9,35.1c-6.6,0-13.2-0.4-19.6-1.1
		C36.3,349,79.4,362.5,125.8,362.5"/>
</g>
</svg>
